nColumns=19
nRows=58
DataType=double
version=3
OpenSimVersion=4.1
endheader
time	ground_force_calcn_r_vx	ground_force_calcn_r_vy	ground_force_calcn_r_vz	ground_force_calcn_r_px	ground_force_calcn_r_py	ground_force_calcn_r_pz	ground_force_calcn_r_mx	ground_force_calcn_r_my	ground_force_calcn_r_mz	ground_force_calcn_l_vx	ground_force_calcn_l_vy	ground_force_calcn_l_vz	ground_force_calcn_l_px	ground_force_calcn_l_py	ground_force_calcn_l_pz	ground_force_calcn_l_mx	ground_force_calcn_l_my	ground_force_calcn_l_mz
0	-150.337	698.798	-15.4712	0.179141	0	-0.162731	-0.092188	0.428509	-0.00948707	0	0	0	0	0	0	0	0	0
0.01	-151.159	712.923	-15.3514	0.182468	0	-0.161799	-0.13403	0.632139	-0.0136118	0	0	0	0	0	0	0	0	0
0.02	-151.571	727.367	-15.4366	0.186595	0	-0.160548	-0.172887	0.829656	-0.0176074	0	0	0	0	0	0	0	0	0
0.03	-151.445	741.466	-15.7487	0.190851	0	-0.159154	-0.207396	1.0154	-0.021567	0	0	0	0	0	0	0	0	0
0.04	-150.676	754.53	-16.2814	0.195144	0	-0.157639	-0.236578	1.18469	-0.0255635	0	0	0	0	0	0	0	0	0
0.05	-149.195	765.887	-17.0179	0.199404	0	-0.156022	-0.259744	1.33339	-0.0296277	0	0	0	0	0	0	0	0	0
0.06	-146.974	774.935	-17.9354	0.203578	0	-0.154321	-0.276638	1.4586	-0.0337584	0	0	0	0	0	0	0	0	0
0.07	-144.03	781.185	-18.9984	0.20764	0	-0.152555	-0.287364	1.5586	-0.037905	0	0	0	0	0	0	0	0	0
0.08	-140.412	784.313	-20.1524	0.211579	0	-0.15074	-0.292212	1.63224	-0.0419394	0	0	0	0	0	0	0	0	0
0.09	-136.189	784.183	-21.3257	0.215392	0	-0.148893	-0.291439	1.67811	-0.0456359	0	0	0	0	0	0	0	0	0
0.1	-131.443	780.853	-22.4348	0.219085	0	-0.147029	-0.285144	1.69393	-0.0486684	0	0	0	0	0	0	0	0	0
0.11	-126.267	774.557	-23.3873	0.222665	0	-0.145165	-0.273322	1.67663	-0.0506249	0	0	0	0	0	0	0	0	0
0.12	-120.76	765.676	-24.0912	0.226134	0	-0.143317	-0.255981	1.62304	-0.0510672	0	0	0	0	0	0	0	0	0
0.13	-115.02	754.717	-24.4725	0.229492	0	-0.141503	-0.233323	1.53098	-0.0496437	0	0	0	0	0	0	0	0	0
0.14	-109.132	742.276	-24.4901	0.232731	0	-0.13974	-0.205908	1.40051	-0.0462073	0	0	0	0	0	0	0	0	0
0.15	-103.176	728.992	-24.1414	0.23583	0	-0.138047	-0.174696	1.23432	-0.0408758	0	0	0	0	0	0	0	0	0
0.16	-97.2204	715.489	-23.4605	0.238769	0	-0.136444	-0.140956	1.03736	-0.0340146	0	0	0	0	0	0	0	0	0
0.17	-91.3283	702.327	-22.508	0.241524	0	-0.134946	-0.106112	0.816014	-0.0261514	0	0	0	0	0	0	0	0	0
0.18	-85.5544	689.973	-21.3585	0.244069	0	-0.133566	-0.0715768	0.577248	-0.017869	0	0	0	0	0	0	0	0	0
0.19	-79.9432	678.799	-20.088	0.246387	0	-0.132319	-0.0386171	0.327899	-0.00970363	0	0	0	0	0	0	0	0	0
0.2	-74.5256	669.076	-18.7619	0.248462	0	-0.131211	-0.00825263	0.0740905	-0.00207761	0	0	0	0	0	0	0	0	0
0.21	-69.3173	660.986	-17.4281	0.250282	0	-0.130252	0.0187693	-0.178977	0.00471906	0	0	0	0	0	0	0	0	0
0.22	-64.3196	654.63	-16.1155	0.251845	0	-0.129442	0.0419555	-0.427014	0.0105121	0	0	0	0	0	0	0	0	0
0.23	-59.5211	650.036	-14.839	0.25315	0	-0.128784	0.0610438	-0.666665	0.0152186	0	0	0	0	0	0	0	0	0
0.24	-54.9018	647.163	-13.6056	0.254212	0	-0.128273	0.0759629	-0.895424	0.018825	0	0	0	0	0	0	0	0	0
0.25	-50.4356	645.921	-12.4195	0.255048	0	-0.127899	0.0867962	-1.11158	0.0213731	0	0	0	0	0	0	0	0	0
0.26	-46.0919	646.181	-11.2845	0.255682	0	-0.127652	0.0937378	-1.31415	0.0229496	0	0	0	0	0	0	0	0	0
0.27	-41.8367	647.795	-10.2077	0.256148	0	-0.127515	0.097047	-1.50267	0.0236784	0	0	0	0	0	0	0	0	0
0.28	-37.6348	650.605	-9.20027	0.256479	0	-0.127469	0.0970115	-1.67707	0.0237156	0	0	0	0	0	0	0	0	0
0.29	-33.4519	654.46	-8.27918	0.256712	0	-0.127496	0.0939219	-1.83751	0.0232452	0	0	0	0	0	0	0	0	0
0.3	-29.2583	659.225	-7.46779	0.256888	0	-0.127575	0.0880691	-1.98431	0.0224785	0	0	0	0	0	0	0	0	0
0.31	-25.0328	664.786	-6.79546	0.257046	0	-0.127687	0.0797517	-2.11793	0.0216496	0	0	0	0	0	0	0	0	0
0.32	-20.7631	671.049	-6.29594	0.257228	0	-0.127815	0.0692794	-2.23907	0.0210075	0	0	0	0	0	0	0	0	0
0.33	-16.4439	677.931	-6.00431	0.257479	0	-0.127942	0.0569648	-2.34849	0.0208001	0	0	0	0	0	0	0	0	0
0.34	-12.0755	685.352	-5.9532	0.257839	0	-0.128056	0.0431131	-2.44692	0.0212548	0	0	0	0	0	0	0	0	0
0.35	-7.65975	693.227	-6.16832	0.258346	0	-0.128144	0.0280096	-2.53494	0.0225558	0	0	0	0	0	0	0	0	0
0.36	-3.19426	701.478	-6.66299	0.259031	0	-0.128203	0.0118984	-2.61296	0.0248192	0	0	0	0	0	0	0	0	0
0.37	1.33242	710.039	-7.43344	0.259916	0	-0.128227	-0.00503165	-2.68134	0.0280711	0	0	0	0	0	0	0	0	0
0.38	5.94091	718.864	-8.45668	0.261016	0	-0.12822	-0.0226497	-2.74066	0.032241	0	0	0	0	0	0	0	0	0
0.39	10.6599	727.907	-9.69061	0.262336	0	-0.128186	-0.040886	-2.79187	0.0371681	0	0	0	0	0	0	0	0	0
0.4	15.5254	737.117	-11.0776	0.263876	0	-0.12813	-0.0597384	-2.83627	0.042624	0	0	0	0	0	0	0	0	0
0.41	20.5779	746.423	-12.5497	0.26563	0	-0.128063	-0.0792681	-2.8753	0.0483428	0	0	0	0	0	0	0	0	0
0.42	25.8578	755.724	-14.035	0.267586	0	-0.127992	-0.0995753	-2.91021	0.0540472	0	0	0	0	0	0	0	0	0
0.43	31.4011	764.889	-15.4626	0.269732	0	-0.127925	-0.12076	-2.94156	0.059465	0	0	0	0	0	0	0	0	0
0.44	37.2359	773.756	-16.7671	0.272053	0	-0.127871	-0.142877	-2.96896	0.0643368	0	0	0	0	0	0	0	0	0
0.45	43.3778	782.138	-17.8908	0.274531	0	-0.127836	-0.165882	-2.99099	0.0684163	0	0	0	0	0	0	0	0	0
0.46	49.8238	789.83	-18.7842	0.277147	0	-0.127826	-0.189589	-3.00545	0.0714775	0	0	0	0	0	0	0	0	0
0.47	56.5478	796.606	-19.4065	0.279884	0	-0.127844	-0.213663	-3.00994	0.0733266	0	0	0	0	0	0	0	0	0
0.48	63.4983	802.219	-19.7239	0.282721	0	-0.127898	-0.237619	-3.00201	0.0738095	0	0	0	0	0	0	0	0	0
0.49	70.5986	806.392	-19.7093	0.285643	0	-0.127987	-0.260845	-2.97943	0.0728213	0	0	0	0	0	0	0	0	0
0.5	77.7485	808.81	-19.3426	0.288627	0	-0.128116	-0.282655	-2.94043	0.0703201	0	0	0	0	0	0	0	0	0
0.51	84.8292	809.12	-18.6118	0.29166	0	-0.128285	-0.302363	-2.88401	0.0663396	0	0	0	0	0	0	0	0	0
0.52	91.707	806.921	-17.5137	0.294723	0	-0.128492	-0.319346	-2.8099	0.060987	0	0	0	0	0	0	0	0	0
0.53	98.2337	801.774	-16.0535	0.297801	0	-0.128735	-0.33307	-2.71848	0.0544307	1.24025	29.215	-9.86027	0.776571	0	-0.126963	0.00609591	0.143593	-0.0484638
0.54	104.246	793.205	-14.2454	0.300884	0	-0.129013	-0.343109	-2.61071	0.0468863	-0.845645	51.8985	-12.3727	0.809196	0	-0.146	-0.00472154	0.289768	-0.0690812
0.55	109.565	780.735	-12.1136	0.30396	0	-0.129319	-0.349152	-2.48798	0.0386027	-3.88757	80.2072	-15.1886	0.825435	0	-0.154855	-0.0180569	0.372544	-0.0705474
0.56	113.998	763.912	-9.69519	0.307029	0	-0.129649	-0.350989	-2.352	0.0298505	-8.06388	114.405	-18.224	0.835668	0	-0.159835	-0.0301719	0.428061	-0.068187
0.57	117.345	742.349	-7.04308	0.310091	0	-0.129998	-0.348467	-2.20448	0.0209151	-13.5435	154.428	-21.3439	0.843081	0	-0.162979	-0.040945	0.466868	-0.064527
